<svg width="139" height="50" viewBox="0 0 139 50" fill="none" xmlns="http://www.w3.org/2000/svg">
<path d="M122.999 19.0631C144.497 19.0631 143.96 49.9846 122.999 49.9846H69.3817C100.379 49.9846 101.337 19.0631 122.999 19.0631Z" fill="url(#paint0_linear_122_84)"/>
<path d="M92.7717 7.39471C122.383 7.39471 121.656 49.9796 92.7717 49.9796H18.9182C61.6095 49.9796 62.9319 7.39471 92.7768 7.39471H92.7717Z" fill="url(#paint1_linear_122_84)"/>
<path d="M113.578 21.3988C105.605 25.6776 100.602 34.9672 92.4424 41.797C86.8767 46.4608 79.8392 49.9821 69.3817 49.9821H92.7717C97.2379 49.9821 101.033 48.9586 104.159 47.236C113.438 42.0959 116.653 30.6935 113.593 21.3963L113.578 21.3988Z" fill="url(#paint2_linear_122_84)"/>
<path d="M36.127 0C1.37512 0 2.24658 49.9669 36.127 49.9669H122.809C72.7004 49.9669 71.155 0 36.127 0Z" fill="url(#paint3_linear_122_84)"/>
<path d="M104.149 47.236C100.017 45.906 96.1106 44.0947 92.4297 41.797C82.6815 35.7221 75.7276 27.1748 68.9105 19.3899C63.4258 25.1532 58.301 32.0463 51.6966 37.8273C45.7332 43.0485 38.5614 47.3652 28.831 49.1259C25.786 49.6781 22.4901 49.9796 18.8979 49.9796H122.791C115.668 49.9796 109.524 48.9688 104.128 47.236H104.149Z" fill="#183788"/>
<path d="M18.6852 13.695C-6.54404 13.695 -5.91072 49.9821 18.6852 49.9821H81.615C45.2393 49.9821 44.117 13.695 18.6852 13.695Z" fill="url(#paint4_linear_122_84)"/>
<path d="M92.4423 41.8148C87.9862 45.5489 82.5802 48.5483 75.2361 49.5971H75.2386C77.354 49.8707 79.4794 50.0049 81.615 49.9999H92.7717C97.2379 49.9999 101.033 48.9789 104.159 47.2538C100.03 45.9263 96.1232 44.1125 92.4423 41.8173V41.8148Z" fill="#061E5C"/>
<path d="M75.2387 49.5641C64.7305 48.1885 57.574 43.4335 51.7119 37.8146C40.7047 27.2659 34.2447 13.6798 18.7004 13.6798C16.3951 13.6798 14.3051 13.9863 12.4304 14.5386C6.96357 27.5167 12.6002 45.0725 28.864 49.1157C31.0908 49.668 33.5177 49.9694 36.1245 49.9694H81.6125C79.4795 49.9745 77.354 49.8402 75.2362 49.5666L75.2387 49.5641Z" fill="url(#paint5_linear_122_84)"/>
<path d="M51.8284 37.8298C45.865 43.0484 38.6932 47.3677 28.9628 49.1284C31.1921 49.6832 33.619 49.9821 36.2258 49.9821H69.483C71.5654 49.9821 73.511 49.8402 75.3375 49.5793C64.8293 48.2037 57.6778 43.4462 51.8132 37.8298H51.8284Z" fill="#0D185C"/>
<path d="M75.3312 49.5817C73.3906 49.8553 71.4375 49.9896 69.4767 49.9845H81.71C79.577 49.9896 77.4515 49.8553 75.3337 49.5817H75.3312Z" fill="#040F42"/>
<defs>
<linearGradient id="paint0_linear_122_84" x1="132.294" y1="22.1715" x2="107.001" y2="46.7344" gradientUnits="userSpaceOnUse">
<stop stop-color="#81CEF1"/>
<stop offset="1" stop-color="#58BEC3"/>
</linearGradient>
<linearGradient id="paint1_linear_122_84" x1="66.8135" y1="7.39471" x2="66.8135" y2="49.9796" gradientUnits="userSpaceOnUse">
<stop stop-color="#81CDF2"/>
<stop offset="1" stop-color="#57A6DB"/>
</linearGradient>
<linearGradient id="paint2_linear_122_84" x1="96.787" y1="44.3025" x2="112.352" y2="23.1443" gradientUnits="userSpaceOnUse">
<stop stop-color="#1972A0"/>
<stop offset="1" stop-color="#3B9FD9"/>
</linearGradient>
<linearGradient id="paint3_linear_122_84" x1="30.1509" y1="0.0405238" x2="54.4706" y2="36.5201" gradientUnits="userSpaceOnUse">
<stop stop-color="#759FD5"/>
<stop offset="1" stop-color="#515AA4"/>
</linearGradient>
<linearGradient id="paint4_linear_122_84" x1="28.9405" y1="50.0986" x2="5.10715" y2="21.8877" gradientUnits="userSpaceOnUse">
<stop stop-color="#C18DBE"/>
<stop offset="1" stop-color="#A0B3DC"/>
</linearGradient>
<linearGradient id="paint5_linear_122_84" x1="14.8295" y1="15.8483" x2="46.0085" y2="49.9696" gradientUnits="userSpaceOnUse">
<stop stop-color="#476CB4"/>
<stop offset="0.924298" stop-color="#3E3B84"/>
</linearGradient>
</defs>
</svg>
